<svg xmlns="http://www.w3.org/2000/svg" width="720" height="430" viewBox="0 0 720 430" role="img" aria-labelledby="title desc">
  <title id="title">gojocodes-all weekly contribution activity</title>
  <desc id="desc">545 contributions across the 30 weeks shown in this graph.</desc>
  <rect width="720" height="430" rx="10" fill="#0d1117"/>
  <rect x=".5" y=".5" width="719" height="429" rx="9.5" fill="none" stroke="#30363d"/>
  <rect width="720" height="4" fill="#22ff88"/>
  
      <text x="38" y="43" fill="#22ff88" font-family="ui-monospace, SFMono-Regular, Menlo, Consolas, monospace" font-size="14" letter-spacing="1.5">WEEKLY RHYTHM / 30 WEEKS</text>
      <text x="682" y="43" fill="#8b949e" text-anchor="end" font-family="ui-monospace, SFMono-Regular, Menlo, Consolas, monospace" font-size="13">545 IN VIEW</text>
      <line x1="38" y1="64" x2="682" y2="64" stroke="#30363d"/>
      <line x1="54" y1="98.0" x2="680" y2="98.0" stroke="#30363d" stroke-opacity=".75"/>
      <text x="42" y="102.0" fill="#8b949e" text-anchor="end" font-family="ui-monospace, SFMono-Regular, Menlo, Consolas, monospace" font-size="11">130</text>
<line x1="54" y1="179.3" x2="680" y2="179.3" stroke="#30363d" stroke-opacity=".75"/>
      <text x="42" y="183.3" fill="#8b949e" text-anchor="end" font-family="ui-monospace, SFMono-Regular, Menlo, Consolas, monospace" font-size="11">87</text>
<line x1="54" y1="260.7" x2="680" y2="260.7" stroke="#30363d" stroke-opacity=".75"/>
      <text x="42" y="264.7" fill="#8b949e" text-anchor="end" font-family="ui-monospace, SFMono-Regular, Menlo, Consolas, monospace" font-size="11">43</text>
<line x1="54" y1="342.0" x2="680" y2="342.0" stroke="#30363d" stroke-opacity=".75"/>
      <text x="42" y="346.0" fill="#8b949e" text-anchor="end" font-family="ui-monospace, SFMono-Regular, Menlo, Consolas, monospace" font-size="11">0</text>
      <path d="M54.0 342.0 L75.6 342.0 L97.2 342.0 L118.8 342.0 L140.3 342.0 L161.9 342.0 L183.5 342.0 L205.1 342.0 L226.7 342.0 L248.3 336.4 L269.9 342.0 L291.4 340.1 L313.0 336.4 L334.6 340.1 L356.2 336.4 L377.8 340.1 L399.4 342.0 L421.0 342.0 L442.6 321.4 L464.1 342.0 L485.7 98.0 L507.3 265.0 L528.9 328.9 L550.5 325.1 L572.1 313.8 L593.7 214.4 L615.2 240.6 L636.8 235.0 L658.4 218.1 L680.0 201.2 L680 342 L54 342 Z" fill="#22ff88" fill-opacity=".08"/>
      <path d="M54.0 342.0 L75.6 342.0 L97.2 342.0 L118.8 342.0 L140.3 342.0 L161.9 342.0 L183.5 342.0 L205.1 342.0 L226.7 342.0 L248.3 336.4 L269.9 342.0 L291.4 340.1 L313.0 336.4 L334.6 340.1 L356.2 336.4 L377.8 340.1 L399.4 342.0 L421.0 342.0 L442.6 321.4 L464.1 342.0 L485.7 98.0 L507.3 265.0 L528.9 328.9 L550.5 325.1 L572.1 313.8 L593.7 214.4 L615.2 240.6 L636.8 235.0 L658.4 218.1 L680.0 201.2" fill="none" stroke="#22ff88" stroke-width="3" stroke-linecap="square" stroke-linejoin="miter"/>
      <circle cx="54.0" cy="342.0" r="3.5" fill="#0d1117" stroke="#22ff88" stroke-width="2"/><circle cx="75.6" cy="342.0" r="3.5" fill="#0d1117" stroke="#22ff88" stroke-width="2"/><circle cx="97.2" cy="342.0" r="3.5" fill="#0d1117" stroke="#22ff88" stroke-width="2"/><circle cx="118.8" cy="342.0" r="3.5" fill="#0d1117" stroke="#22ff88" stroke-width="2"/><circle cx="140.3" cy="342.0" r="3.5" fill="#0d1117" stroke="#22ff88" stroke-width="2"/><circle cx="161.9" cy="342.0" r="3.5" fill="#0d1117" stroke="#22ff88" stroke-width="2"/><circle cx="183.5" cy="342.0" r="3.5" fill="#0d1117" stroke="#22ff88" stroke-width="2"/><circle cx="205.1" cy="342.0" r="3.5" fill="#0d1117" stroke="#22ff88" stroke-width="2"/><circle cx="226.7" cy="342.0" r="3.5" fill="#0d1117" stroke="#22ff88" stroke-width="2"/><circle cx="248.3" cy="336.4" r="3.5" fill="#0d1117" stroke="#22ff88" stroke-width="2"/><circle cx="269.9" cy="342.0" r="3.5" fill="#0d1117" stroke="#22ff88" stroke-width="2"/><circle cx="291.4" cy="340.1" r="3.5" fill="#0d1117" stroke="#22ff88" stroke-width="2"/><circle cx="313.0" cy="336.4" r="3.5" fill="#0d1117" stroke="#22ff88" stroke-width="2"/><circle cx="334.6" cy="340.1" r="3.5" fill="#0d1117" stroke="#22ff88" stroke-width="2"/><circle cx="356.2" cy="336.4" r="3.5" fill="#0d1117" stroke="#22ff88" stroke-width="2"/><circle cx="377.8" cy="340.1" r="3.5" fill="#0d1117" stroke="#22ff88" stroke-width="2"/><circle cx="399.4" cy="342.0" r="3.5" fill="#0d1117" stroke="#22ff88" stroke-width="2"/><circle cx="421.0" cy="342.0" r="3.5" fill="#0d1117" stroke="#22ff88" stroke-width="2"/><circle cx="442.6" cy="321.4" r="3.5" fill="#0d1117" stroke="#22ff88" stroke-width="2"/><circle cx="464.1" cy="342.0" r="3.5" fill="#0d1117" stroke="#22ff88" stroke-width="2"/><circle cx="485.7" cy="98.0" r="3.5" fill="#0d1117" stroke="#22ff88" stroke-width="2"/><circle cx="507.3" cy="265.0" r="3.5" fill="#0d1117" stroke="#22ff88" stroke-width="2"/><circle cx="528.9" cy="328.9" r="3.5" fill="#0d1117" stroke="#22ff88" stroke-width="2"/><circle cx="550.5" cy="325.1" r="3.5" fill="#0d1117" stroke="#22ff88" stroke-width="2"/><circle cx="572.1" cy="313.8" r="3.5" fill="#0d1117" stroke="#22ff88" stroke-width="2"/><circle cx="593.7" cy="214.4" r="3.5" fill="#0d1117" stroke="#22ff88" stroke-width="2"/><circle cx="615.2" cy="240.6" r="3.5" fill="#0d1117" stroke="#22ff88" stroke-width="2"/><circle cx="636.8" cy="235.0" r="3.5" fill="#0d1117" stroke="#22ff88" stroke-width="2"/><circle cx="658.4" cy="218.1" r="3.5" fill="#0d1117" stroke="#22ff88" stroke-width="2"/><circle cx="680.0" cy="201.2" r="3.5" fill="#0d1117" stroke="#22ff88" stroke-width="2"/>
      
    <text x="54.0" y="370" fill="#8b949e" text-anchor="middle" font-family="ui-monospace, SFMono-Regular, Menlo, Consolas, monospace" font-size="11">15 Mar</text>
    <text x="248.3" y="370" fill="#8b949e" text-anchor="middle" font-family="ui-monospace, SFMono-Regular, Menlo, Consolas, monospace" font-size="11">17 May</text>
    <text x="464.1" y="370" fill="#8b949e" text-anchor="middle" font-family="ui-monospace, SFMono-Regular, Menlo, Consolas, monospace" font-size="11">26 Jul</text>
    <text x="680.0" y="370" fill="#8b949e" text-anchor="middle" font-family="ui-monospace, SFMono-Regular, Menlo, Consolas, monospace" font-size="11">4 Oct</text>
      <text x="54" y="410" fill="#8b949e" font-family="ui-monospace, SFMono-Regular, Menlo, Consolas, monospace" font-size="11">WEEKLY PUBLIC CONTRIBUTIONS</text>
</svg>
